<?xml version="1.0" encoding="UTF-8"?>
<svg id="Layer_2" data-name="Layer 2" xmlns="http://www.w3.org/2000/svg" viewBox="0 0 3943.74 2469.86">
  <defs>
    <style>
      .cls-1 {
        fill: #fff;
      }

      .cls-2 {
        fill: #ffdb00;
      }

      .cls-3 {
        fill: #ffd100;
      }

      .cls-4 {
        fill: #b59b00;
      }

      .cls-5 {
        fill: #dbe5e5;
      }

      .cls-6 {
        fill: #423c52;
      }

      .cls-7 {
        stroke: #423c52;
        stroke-linecap: round;
      }

      .cls-7, .cls-8 {
        fill: none;
        stroke-miterlimit: 10;
        stroke-width: 7px;
      }

      .cls-8 {
        stroke: #ffdb00;
      }
    </style>
  </defs>
  <g id="Layer_1-2" data-name="Layer 1">
    <g id="Layer_2-2" data-name="Layer 2">
      <g id="_Слой_1" data-name="Слой 1">
        <g id="TREES">
          <path class="cls-6" d="m1745.84,1265.06c0,161.52-61.5,231.35-137.36,231.35s-137.37-69.83-137.37-231.35,90.07-353.57,137.37-353.57c51.71,0,137.36,192.05,137.36,353.57Z"/>
          <line class="cls-8" x1="1607.43" y1="1015.36" x2="1607.43" y2="1608.6"/>
          <path class="cls-8" d="m1650.24,984.32v101.85c-.1,17.32-5.48,34.2-15.41,48.39l-27.4,39.88"/>
          <path class="cls-6" d="m1871.74,1674c0,21.43-4.71,42.6-13.82,62h-291.68c-9.12-19.4-13.84-40.57-13.83-62,0-84.08,71.49-152.24,159.67-152.24s159.66,68.18,159.66,152.24Z"/>
          <ellipse class="cls-6" cx="565.02" cy="1630.88" rx="106" ry="106.19"/>
          <line class="cls-7" x1="1110.97" y1="1180.27" x2="1110.97" y2="1731.28"/>
          <path class="cls-7" d="m1180.65,1201.27v35.73c0,17.53-5.79,34.56-16.46,48.46l-27.88,36.32c-16.43,21.39-25.34,47.61-25.34,74.59"/>
          <path class="cls-7" d="m1016.41,1260v37.47c0,30.95,14.5,60.1,39.18,78.77l28.27,21.39c17.08,12.91,27.11,33.08,27.11,54.49"/>
          <path class="cls-4" d="m1373.58,1076c0,65.93-44.5,101.49-112.53,119.09-8.14,28-39.07,48.92-76,48.92-30,0-56-13.75-69.08-33.93h-1.32c-6.27,36.16-40.27,63.78-81.28,63.78-45.46,0-82.32-34-82.32-75.85,0-1.84.07-3.67.22-5.48-62.76-18.44-103.27-53.69-103.27-116.53,0-107.2,117.65-194.1,262.78-194.1s262.8,86.85,262.8,194.1Z"/>
          <path class="cls-6" d="m926.76,1264.67c0,150.33-68.63,215.33-153.29,215.33s-153.29-65-153.29-215.35,100.51-328.1,153.29-328.1c57.7,0,153.29,177.76,153.29,328.12Z"/>
          <line class="cls-8" x1="772.49" y1="1734.07" x2="772.49" y2="1096.3"/>
          <path class="cls-8" d="m730.49,1164.21v120c0,20.03,5.32,39.7,15.41,57l27.39,47"/>
          <path class="cls-2" d="m776.66,1096.31c0,158.59-68.63,287.16-153.29,287.16-3.49,0-6.97-.22-10.43-.66,79.73-9.89,142.72-131,142.72-278.86s-68.63-279.52-153.29-279.52c-15.26,0-30,4.06-43.9,11.64,19.71-17.28,41.7-26.93,64.9-26.93,84.63,0,153.29,128.57,153.29,287.17Z"/>
          <ellipse class="cls-4" cx="602.37" cy="1103.95" rx="153.29" ry="279.52"/>
          <line class="cls-7" x1="603.32" y1="1652.09" x2="603.32" y2="973.18"/>
          <path class="cls-7" d="m671.32,1377.92v55.42c0,28.04-22.73,50.76-50.77,50.76h0c-9.33,0-16.9,7.57-16.91,16.9"/>
          <path class="cls-7" d="m575.5,899.44v198c0,21.89,6.62,43.28,19,61.33l7.85,11.44"/>
          <path class="cls-7" d="m663.37,975.06c0,45.33-22.35,87.75-59.73,113.39h0"/>
          <ellipse class="cls-4" cx="1401.98" cy="1318.59" rx="164.43" ry="255.04"/>
          <line class="cls-7" x1="1390.68" y1="1240.14" x2="1390.68" y2="1687.02"/>
          <path class="cls-7" d="m1423.52,1315.58v58.18c0,14.82-3.86,29.38-11.19,42.25l-21.65,38"/>
        </g>
        <g id="SMOKE">
          <path class="cls-5" d="m3722.7,1762c-6,131.74-123.31,233.38-261.93,227-45.24-1.95-89.19-15.68-127.5-39.82-31.76,40.89-83.18,66.32-140,63.71-91.46-4.19-162.31-79.38-158.25-168,.13-2.78.33-5.54.6-8.27,8.33-84.52,83.76-148.57,172.35-144.5,6.46.3,12.9.97,19.29,2,74.25,11.82,131.15,71,138.35,143.24.27-2.73.47-5.49.6-8.26,3.62-79.05-52.42-147.44-129.53-164.21,37.32-93.67,134.78-158.06,246-153,138.58,6.46,246.06,118.4,240.02,250.11Z"/>
          <circle class="cls-5" cx="3031.45" cy="1998.26" r="35"/>
          <path class="cls-5" d="m2036.32,846.36c-29.49.86-58.63-6.54-84.14-21.36-19.33,42.29-69.29,60.91-111.58,41.58-42.29-19.33-60.91-69.29-41.58-111.58,13.35-29.21,42.15-48.28,74.25-49.17h.67c23.86-.5,46.8,9.18,63.1,26.61-13.98-22.42-37.68-36.97-64-39.3v-1.37c-2.42-87.81,66.79-160.95,154.6-163.38,87.81-2.42,160.95,66.79,163.38,154.6,2.42,87.81-66.79,160.95-154.6,163.38h-.1Z"/>
          <circle class="cls-5" cx="1768.8" cy="877.38" r="27.09"/>
          <circle class="cls-5" cx="246.22" cy="1026.08" r="27.45" transform="translate(-789.96 1225.55) rotate(-87.4)"/>
          <circle class="cls-1" cx="3256.15" cy="1942.07" r="25.83"/>
          <circle class="cls-5" cx="976.22" cy="266.91" r="127.59"/>
          <path class="cls-5" d="m2241.08,177.59c31.31,29,52,67.95,56.06,111.38,0,0,24.55-121.94-76.86-168,47.91-67.64,143.72-113.8,253.99-113.8,116.87,0,217.4,51.81,262,126.12,2.18-2.18,4.41-4.32,6.7-6.41,48.36-44.65,116.45-72.44,191.87-72.44,99.11,0,185.55,48,231.23,119.14,20.28,31.58,32.52,67.72,34.27,106.25,33.77-71.66,21.31-130.08,21.31-130.08,43.73-15.08,89.67-22.75,135.92-22.7,233,0,421.81,191.47,421.81,427.65.2,92.22-29.26,182.05-84.05,256.23-46.76,63.28-110.47,92.48-177.13,92.48-112.93,0-203.59-81.2-203.34-194.12.02-25.95,5.02-51.65,14.72-75.71-24.89,19.1-55.42,29.4-86.8,29.29-49.88,0-103.6-24.27-128-62.18-4.45-6.64-51.35-68.9-81-90-106.23-75.56-215.06-31.76-245-19-41.65,17.78-74.83,51-97.75,89.95-37.95,73.46-136.71,133.36-225.03,133.36-126.09,0-228.31-102.22-228.31-228.31.02-19.52,2.39-38.96,7.05-57.91-34.91,34.09-84.08,55.32-138.56,55.32-105.9,0-191.75-80.22-191.75-179.17v-.82c.46-98.57,86.13-178.35,191.74-178.35,39.01-.05,94.08,14.06,134.91,51.83Z"/>
          <circle class="cls-1" cx="2527.28" cy="594.97" r="27.45"/>
          <circle class="cls-1" cx="3442.97" cy="799.13" r="27.45"/>
          <path class="cls-5" d="m744.77,921c3.49,7,5.8,14.77,8.42,22.55,0,0,17.27-10,31.64-4.9,16.93,6.06,35.87,24.42,54.79,50.66,2.59,3.58,17.68,28.09,19.65,30.3,25.98,29.03,63.12,45.61,102.08,45.57,73.3,0,135.11-56.58,132.73-126.29-2.69-79-75.17-113.83-75.17-113.83,12.43-16.59,19.18-36.74,19.24-57.47,0-57.8-52.44-104.65-117.13-104.65-45.66,0-85.22,23.34-104.54,57.41,8-43.29,45.8-77.61,93.93-85.63-11.15-199.85-177.19-358.47-380.41-358.47s-381,170.1-381,379.92c0,128.82,64.29,242.67,162.63,311.36,29.51-27.27,73.26-32.33,108.22-12.53-4.47-.66-8.99-.99-13.51-1-51,0-92.35,41.36-92.34,92.36,0,51,41.36,91.05,92.34,92.34,71.89,1.82,94.51-68.15,93.34-92.34-2.53-52.83-33.61-70.42-33.61-70.42,18.92-66.86,52.2-118,92.41-139.88,30.45-19.64,106.52-76.06,186.29,84.94Z"/>
          <circle class="cls-1" cx="921.02" cy="715.98" r="27.45"/>
        </g>
        <g id="FIRE">
          <path class="cls-2" d="m1665.6,948.23c8.52-.38,15.42-6.67,15.42-14.89-.05-5.98-3.68-11.36-9.21-13.63,1.87-.51,3.79-.77,5.73-.77,11,0,19.82,8.12,19.82,18.14,0,4.07-1.48,8-4.14,11.08,8.61-2.72,15.89-7.75,18.23-15,8.4,11.47,12.46,27.14,10,43.59-.18,1.25-.41,2.49-.66,3.7-3.64,17.63-14.24,31.84-27.73,39.12-7.65,17.69-26,30.15-47.48,30.15-28.32,0-51.27-21.71-51.27-48.49,0-9.35,2.83-18.47,8.12-26.18l-9.53-6.24c-3.64,1.43-7.51,2.17-11.42,2.16-18.09,0-32.76-15.47-32.76-34.55-.14-12.48,6.4-24.08,17.15-30.42-1.32,3.11-2,6.46-2,9.84,0,8.94,5.6,14,12.42,16.19.11-1,.23-2,.38-3,5.94-40.24,41.93-69.93,83-68-14.45,4.93-25,22.24-24.74,42.7.16,13.69,5.11,25.87,12.74,33.79,2.57,3.26,11.42,11,17.93,10.71Z"/>
          <path class="cls-2" d="m82.27,1724.67s-60.86-6.21-82.27-81.18c0,0,66.81.61,82.27,81.18Z"/>
          <path class="cls-2" d="m253.1,1327.74s-40.58,7.69-68.86-36.7c0-.04,43.36-12.46,68.86,36.7Z"/>
          <path class="cls-2" d="m908.81,1607.28s-3.7-43.56,45.17-67.31c.02.03,8.34,47.09-45.17,67.31Z"/>
          <path class="cls-2" d="m1873.71,1737.07H264.5s0-.09,0-.13c-2.51.08-5.03.12-7.58.12l-59.39-.08c-55-7.24-102.71-54.91-116-119.43-.67-3.28-1.3-6.64-1.79-10-6.58-44.58,4.42-87,27.19-118.13,5.52,37.1,40.76,69,99.11,59-23.64-3.05-43.44-19.37-50.93-42-12.19-37,16.52-72.35,50.86-81.58,6.07-1.63,12.33-2.44,18.61-2.41-15.08,11.79-22.52,31.4-17.39,50.5,6.92,25.77,34.18,40.87,60.89,33.69,3.76-1,54.51-26,46.13-97-6.5-55.07-27.88-102.36-67-115.72,111.33-5.12,208.86,75.34,225,184.39l1.31,8c18.35-6,33.38-19.7,33.38-43.78.02-9.16-1.81-18.24-5.37-26.68,27.65,15.87,46.4,46.78,46.4,82.27,0,46.14-31.64,84.49-73.28,92.23,30,22,50.19,55.75,53.25,94.18,17.47-7.34,39.11-13.4,65.72-16.38l1.34-.18c16.34-2.44,28.24-13.43,26.58-24.55-1-6.91-7.07-12.24-15.41-14.69,15.99-12.61,39.17-9.88,51.78,6.11,7.29,9.24,9.73,21.41,6.57,32.75,11.56,1,23.74,2.39,36.56,4.4,0,0,21.56-99.48,115.46-99.48,79.63,0,87.6,82,87.6,82,0,0,23.89-48.18,79.63-42.21,55.74,5.97,53.75,59.67,53.75,59.67,0,0,8.48-149.6,147.67-160.17-10.65,11.8-17.14,37.43-17.14,54.57,0,36.75,29.8,66.54,66.55,66.54,6.71.06,13.41-.28,20.08-1h0c4.38-.86,8.45-2.84,11.83-5.75,1.36-1.16,2.61-2.45,3.73-3.85,8.53-10.69,7.73-25.5-1.77-33.08-7.79-6.21-19-5.62-27.52.68,4.82-11.55,19-19.91,35.7-19.91,8.07-.08,16.01,2.01,23,6.05l.09.08c.75.46,1.5.93,2.23,1.42,63.87,41.31,62,122.35,62,122.35,0,0,23.94-27.88,67.73-2,0,0-6.32-45.91,55.75-56.3,49.76-8.33,67.68,30.37,67.68,30.37,0,0,31.23-97.58,155.37-95.5,163.25,2.86,163.25,160.62,163.25,160.62Z"/>
          <path class="cls-2" d="m636.43,838.51c0,39.18-31.77,70.95-70.96,70.94-15.31,0-30.21-4.96-42.47-14.12-2.43,15.72-17.14,26.49-32.86,24.06-15.72-2.43-26.49-17.14-24.06-32.86,2.17-14.04,14.25-24.4,28.45-24.4,1.39,0,2.77.1,4.14.3-6.96-19.47-5.09-41.02,5.12-59,9.14,20.69,33.32,30.05,54.01,20.91,20.69-9.14,30.05-33.32,20.91-54.01-.25-.57-.52-1.13-.79-1.69,33.85,6.04,58.51,35.48,58.52,69.87Z"/>
          <path class="cls-3" d="m550.81,801.48s-34.16-12.64-30.69-47.07c0,0,38.88,11.32,30.69,47.07Z"/>
          <path class="cls-3" d="m644.19,760s-11.83-34.46,17-53.56c.02.03,15.81,37.27-17,53.56Z"/>
          <path class="cls-2" d="m732.16,922.1c0,30.13-24.43,54.56-54.56,54.56-15.83,0-30.88-6.87-41.24-18.84-.87,11.5-10.9,20.12-22.39,19.25-11.5-.87-20.12-10.9-19.25-22.39.87-11.5,10.9-20.12,22.39-19.25,2.89.22,5.69,1.03,8.25,2.39-7.16-23.84,2.71-49.5,24-62.4-1.88,4.9-2.49,10.2-1.78,15.4,1.94,14.93,13.53,25.73,25.89,24.12s20.82-15,18.88-29.93c-.76-6.34-3.48-12.28-7.78-17,27.2,3.5,47.58,26.66,47.59,54.09Z"/>
        </g>
        <g id="TREE">
          <path class="cls-2" d="m3148.83,312.81c0,61.69-67.27,111.7-150.25,111.7-74,0-135.51-39.77-148-92.13,1.43,1.92,2.79,3.91,4.11,5.94,2.9,4.47,5.5,9.13,7.8,13.94,23.2,33.88,72.41,57.25,129.37,57.25,32.42,0,62.35-7.58,86.38-20.37,25.42-13.51,44.27-32.84,52.55-55.18,1.84-4.94,3.15-10.07,3.91-15.29h0c2.96-8.15,7.14-15.79,12.4-22.68,1.14,5.54,1.72,11.17,1.73,16.82Z"/>
          <path class="cls-2" d="m3771.61,420.86c-2.16,5.52-4.53,10.95-7.1,16.29-9.92,20.47-22.49,39.55-37.38,56.75,0,.02,0,.03,0,.05-48.1,50.67-125.06,79.5-208.29,71-114.92-11.77-203.7-90.87-216.37-185.23,3.77-.39,7.5-1.15,11.13-2.27,23.74,90.87,119.17,158.82,233.28,158.82,83.66,0,157.28-36.52,200-91.83v-.05c5.77-8.28,11.08-16.88,15.89-25.75,2.89.82,5.84,1.56,8.84,2.22Z"/>
          <circle class="cls-6" cx="3789.19" cy="86.75" r="42.5"/>
          <path class="cls-8" d="m3170.38,1650.45c21.72,0,39.33-17.61,39.33-39.33h0V242.7"/>
          <rect class="cls-6" x="3148.84" y="260.58" width="31.54" height="2158.71"/>
          <path class="cls-7" d="m3271.92,591c0,26.95-7.9,53.31-22.71,75.83l-74.21,110.26"/>
          <path class="cls-8" d="m3029,679.91v80.33c0,45.1,19.98,87.89,54.57,116.83l20.61,17.25c28.31,23.72,44.66,58.75,44.66,95.68"/>
          <line class="cls-8" x1="3148.84" y1="2418.07" x2="3148.84" y2="280.58"/>
          <path class="cls-7" d="m3158.84,2215.33c-21.72,0-39.33-17.61-39.34-39.33v-410.07"/>
          <path class="cls-7" d="m3096.1,367.92v162.38c0,32.97,26.71,59.69,59.68,59.7h.02"/>
          <path class="cls-7" d="m3269.8,314.92v20.38c0,32.97-26.71,59.69-59.68,59.7h-40.02"/>
          <path class="cls-7" d="m3099.35,1219.14v119.46c0,35.31,11.78,69.62,33.48,97.48l76.88,97.51"/>
          <path class="cls-7" d="m2897.12,360.54h-100.12c-23.32,0-42.23-18.91-42.23-42.23v-75.61"/>
          <path class="cls-7" d="m3675.52,495.14h100.11c23.32,0,42.23-18.91,42.23-42.23v-48.6"/>
          <path class="cls-6" d="m3092.29,97.07s138.88-132.47,388.8-87.91c222.87,39.75,279.39,178,279.39,178,0,0,151.18-38.09,180.61,92.25,21,93-87.16,168.06-178.36,139.16,0,0-48.33,107.45-204.19,117.39s-239.69-107.08-245-158.58c0,0-62.18,14.34-75.24-41.72-10.94-47,22.83-64.92,26.57-66.36,0,0-42.94-19.36-81.65-1.68-34.86,15.93-42.68,34-54.08,70.45-10.67,34.12-59.87,69.85-131.21,71.31s-126-27.16-147.33-77-97.51-52-131.06-20.44-152.07,43.13-199.66-31.49-29.59-176.45,180.93-221.94c222.76-48.09,382.36,34.29,391.48,38.56Z"/>
          <path class="cls-6" d="m3283.08,586.32l-14.49,8.68v-65.24c0-27.76,22.5-50.26,50.26-50.26h0v43.81c0,25.84-13.59,49.77-35.77,63.01Z"/>
          <path class="cls-6" d="m3033,736.33h0v-55.21c0-22.23,18.02-40.25,40.25-40.25h0v15.26c0,31.59-14.92,61.32-40.25,80.2Z"/>
          <path class="cls-2" d="m3032.61,685.63h0c-32.01-14.55-52.56-46.47-52.56-81.63v-38.82h0c29.03,0,52.56,23.53,52.56,52.56h0v67.89Z"/>
          <path class="cls-6" d="m3123.25,1932.6v-64.1c0-26.21-21.25-47.46-47.46-47.46v51c0,17.38,8.54,33.65,22.83,43.53l24.63,17.03Z"/>
          <path class="cls-6" d="m3103.35,1298.24v-75.24c0-30.77-24.94-55.71-55.71-55.71v59.89c0,20.4,10.02,39.5,26.8,51.09l28.91,19.97Z"/>
        </g>
        <g id="FIRE-2">
          <path class="cls-2" d="m2889,2174.38s-52.65-31.16-40.64-108.2c0,0,60.39,28.58,40.64,108.2Z"/>
          <path class="cls-2" d="m3292.43,2372.86s8.41-54.81,75.75-69.56c0,0-3.74,60.57-75.75,69.56Z"/>
          <path class="cls-2" d="m3443,2452.36c0,9.67-163.51,17.5-365.21,17.5s-365.2-7.83-365.2-17.5c0-5.92,61.48-11.16,155.55-14.33-32.14-20.76-54.25-56.77-51-99.65,3.6-48,32.43-87.27,70.69-102.78-20.64,83.54,45.46,99.15,45.46,99.15-9.09-22.54-13.76-46.62-13.75-70.93,0-98,75.33-181.42,173.9-191.37-32.7,16.82-51.72,61.78-44,110.46,5.2,32.59,21.3,59.86,42.27,76.06,12.28,11.36,30.41,19.45,51.17,21.42,40.14,3.82,74.91-16.65,77.67-45.71,1.07-11.23-2.8-22.09-10.25-31.42,41.66,19.77,71,67.48,71,123.19,0,3-.09,6.07-.27,9.06-.98,17.79-5.11,35.27-12.18,51.63,19.17,2.47,32.71,20.01,30.25,39.18-.54,4.19-1.83,8.25-3.82,11.98,89.63,3.19,147.72,8.3,147.72,14.06Z"/>
        </g>
      </g>
    </g>
  </g>
</svg>