<?xml version="1.0" encoding="UTF-8"?>
<svg id="Layer_1" data-name="Layer 1" xmlns="http://www.w3.org/2000/svg" viewBox="0 0 4047.27 1872.74">
  <defs>
    <style>
      .cls-1, .cls-2, .cls-3, .cls-4, .cls-5, .cls-6, .cls-7, .cls-8, .cls-9, .cls-10, .cls-11, .cls-12 {
        stroke-miterlimit: 10;
      }

      .cls-1, .cls-2, .cls-3, .cls-13, .cls-14, .cls-15, .cls-8 {
        fill: #fff;
      }

      .cls-1, .cls-2, .cls-3, .cls-16, .cls-17, .cls-5, .cls-6, .cls-7, .cls-18, .cls-9, .cls-10, .cls-11 {
        stroke-width: 5px;
      }

      .cls-1, .cls-14, .cls-15, .cls-19 {
        stroke: #fe552f;
      }

      .cls-2, .cls-5, .cls-9 {
        stroke: #ffdb00;
      }

      .cls-3, .cls-16, .cls-18, .cls-11 {
        stroke: #423c52;
      }

      .cls-4, .cls-16, .cls-17, .cls-5, .cls-6, .cls-7, .cls-18, .cls-20, .cls-9, .cls-10, .cls-11, .cls-21, .cls-19 {
        fill: none;
      }

      .cls-4, .cls-15, .cls-8, .cls-12, .cls-21, .cls-19 {
        stroke-width: 6px;
      }

      .cls-4, .cls-8, .cls-12 {
        stroke: #dbe5e5;
      }

      .cls-22 {
        fill: #eb7500;
      }

      .cls-23, .cls-24 {
        fill: #ffdb00;
      }

      .cls-25 {
        fill: #fe552f;
      }

      .cls-26 {
        fill: #a0505a;
      }

      .cls-27 {
        fill: #9daaa9;
      }

      .cls-28 {
        fill: #907b00;
      }

      .cls-29 {
        fill: #b59b00;
      }

      .cls-30 {
        fill: #dbe5e5;
      }

      .cls-31 {
        fill: #423c52;
      }

      .cls-16, .cls-17, .cls-14, .cls-15, .cls-18, .cls-20, .cls-21, .cls-19 {
        stroke-linejoin: round;
      }

      .cls-16, .cls-17, .cls-20, .cls-9, .cls-10, .cls-11, .cls-21, .cls-19 {
        stroke-linecap: round;
      }

      .cls-17, .cls-6, .cls-20, .cls-21 {
        stroke: #fff;
      }

      .cls-7, .cls-10 {
        stroke: #b59b00;
      }

      .cls-24 {
        isolation: isolate;
        opacity: .5;
      }

      .cls-14 {
        stroke-width: 6px;
      }

      .cls-20 {
        stroke-width: 7px;
      }

      .cls-12 {
        fill: #1a9142;
      }
    </style>
  </defs>
  <g id="_Слой_1" data-name="Слой 1">
    <g id="TRASH_CANS" data-name="TRASH CANS">
      <polygon class="cls-27" points="2982.06 1868.29 3621.86 1868.29 3697.78 1114.74 2906.13 1114.74 2982.06 1868.29"/>
      <rect class="cls-30" x="2906.14" y="777.54" width="791.65" height="386.21" rx="53.05" ry="53.05"/>
      <path class="cls-21" d="m2902.46,1110.7c0,29.29,24,53,53.54,53h691.92c29.57,0,53.54-23.75,53.54-53"/>
      <path class="cls-21" d="m2902.46,1141.7c0,29.29,24,53,53.54,53h691.92c29.57,0,53.54-23.75,53.54-53"/>
      <rect class="cls-31" x="2951" y="823.3" width="701.92" height="293.44" rx="53.05" ry="53.05"/>
      <polygon class="cls-20" points="3376.24 1351.78 3376.24 1514.42 3361.7 1506.88 3347.25 1514.33 3332.8 1506.88 3318.36 1514.33 3303.91 1506.88 3289.46 1514.33 3275.01 1506.88 3260.57 1514.33 3246.12 1506.88 3231.58 1514.42 3231.58 1314.68 3339.14 1314.68 3339.14 1351.78 3376.24 1351.78"/>
      <polygon class="cls-20" points="3376.24 1348.85 3376.24 1351.78 3339.14 1351.78 3339.14 1314.68 3342.07 1314.68 3376.24 1348.85"/>
      <polygon class="cls-13" points="3376.24 1351.78 3339.14 1351.78 3339.14 1314.68 3376.24 1351.78"/>
      <polygon class="cls-23" points="2187.08 1868.29 2827.97 1868.29 2904.03 1114.74 2111.03 1114.74 2187.08 1868.29"/>
      <rect class="cls-2" x="2111.71" y="777.54" width="791.65" height="386.21" rx="53.05" ry="53.05"/>
      <path class="cls-6" d="m2111.7,1141.7c0,29.27,23.73,53,53,53h685.61c29.27,0,53-23.73,53-53"/>
      <rect class="cls-31" x="2156.57" y="823.3" width="701.92" height="293.44" rx="53.05" ry="53.05"/>
      <path class="cls-13" d="m2565.25,1341.26v-10.89c0-16.69-13.53-30.22-30.22-30.22h-11.89v-25.36h0v-.68c0-7.26-8.28-13.15-18.5-13.15s-18.5,5.89-18.5,13.15v.68h0v25.36h-11.89c-16.69,0-30.22,13.53-30.22,30.22v10.89c0,9.55,7.74,17.29,17.29,17.29h-5.32c-6.63,0-12,5.37-12,12v19.35c0,6.63,5.37,12,12,12h97.21c6.63,0,12-5.37,12-12v-19.35c0-6.63-5.37-12-12-12h-5.21c9.53-.02,17.25-7.76,17.25-17.29Zm-60.61-56.25c-7.19,0-13-4.23-13-9.45s5.83-9.44,13-9.44,13,4.23,13,9.44-5.8,9.45-13,9.45Z"/>
      <path class="cls-13" d="m2565.25,1418.72v138.72c.03,4.22-3.36,7.68-7.59,7.71,0,0,0,0-.01,0h-9.05c-2.92-.01-5.58-1.71-6.83-4.35-.14-.48-.32-.94-.5-1.4h0c-3.15-6.81-11.23-9.78-18.04-6.63-3.05,1.41-5.47,3.9-6.79,6.99v.09c-.06.17-.12.33-.19.5,0,.04,0,.08,0,.12-1.16,2.85-3.93,4.71-7,4.71h-9c-3.01-.01-5.72-1.8-6.93-4.55h0c-.1-.33-.22-.64-.35-1-3.01-6.87-11.02-10-17.89-6.99-3.1,1.36-5.59,3.83-6.96,6.93-.15.33-.27.66-.38,1h0c-.37.84-.89,1.61-1.54,2.26-1.42,1.44-3.35,2.25-5.37,2.25h-9c-4.23-.03-7.63-3.48-7.6-7.71v-138.65c0-9.28,7.53-16.81,16.81-16.81h87.6c9.2.11,16.61,7.61,16.61,16.81Z"/>
      <path class="cls-23" d="m2504.64,1320.77c-11.38,0-21-5-23.37-12.24l-.13-.38v-9.14h5v8.27c1.91,4.85,9.75,8.46,18.5,8.46s16.6-3.61,18.5-8.46v-10.09h5v10.93l-.12.38c-2.38,7.23-12.02,12.27-23.38,12.27Z"/>
      <path class="cls-23" d="m2558,1361.01h-106.68c-1.38,0-2.5-1.12-2.5-2.5s1.12-2.5,2.5-2.5h106.68c1.38,0,2.5,1.12,2.5,2.5s-1.12,2.5-2.5,2.5Z"/>
      <path class="cls-23" d="m2558,1406.01h-106.68c-1.38,0-2.5-1.12-2.5-2.5s1.12-2.5,2.5-2.5h106.68c1.38,0,2.5,1.12,2.5,2.5s-1.12,2.5-2.5,2.5Z"/>
      <polyline class="cls-12" points="1386.4 1868.29 1310.47 1114.74 2102.12 1114.74 2026.2 1868.29"/>
      <path class="cls-4" d="m2098.8,1141.7c0,29.29-23.55,53-52.6,53h-679.8c-29.05,0-52.6-23.75-52.6-53"/>
      <rect class="cls-8" x="1310.47" y="777.53" width="791.65" height="386.21" rx="53.05" ry="53.05"/>
      <rect class="cls-31" x="1355.34" y="823.31" width="701.92" height="293.44" rx="53.05" ry="53.05"/>
      <path class="cls-13" d="m1729.67,1318.65v108c0,15.64-19.7,28.31-44,28.31s-44-12.67-44-28.31v-108c0,15.64,19.69,28.31,44,28.31s44-12.67,44-28.31Z"/>
      <path class="cls-4" d="m1726.37,1318.46v.19c0,15.64-18.22,28.31-40.7,28.31s-40.7-12.67-40.7-28.31v-.19c.15-15.55,18.31-28.12,40.7-28.12s40.55,12.57,40.7,28.12Z"/>
      <line class="cls-4" x1="1685.67" y1="1454.96" x2="1685.67" y2="1538.77"/>
      <line class="cls-4" x1="1716.19" y1="1538.77" x2="1655.14" y2="1538.77"/>
      <polygon class="cls-25" points="1235.1 1868.29 592.59 1868.29 516.34 1114.74 1311.34 1114.74 1235.1 1868.29"/>
      <rect class="cls-1" x="518.02" y="777.53" width="791.65" height="386.21" rx="53.05" ry="53.05"/>
      <path class="cls-21" d="m1312.84,1141.7c0,29.29-23.94,53-53.47,53h-691c-29.54,0-53.48-23.75-53.48-53"/>
      <rect class="cls-31" x="562.88" y="823.31" width="701.92" height="293.44" rx="53.05" ry="53.05"/>
      <path class="cls-13" d="m988,1397.22c0,34.52-22.72,62.51-50.75,62.51-3.34,0-6.67-.4-9.92-1.19-9.44-2.31-19.31-2.31-28.75,0-3.25.79-6.59,1.19-9.94,1.19-28,0-50.75-28-50.75-62.51s22.71-62.52,50.75-62.52c8.68.04,17.15,2.69,24.31,7.61,7.15-4.91,15.62-7.56,24.3-7.61,28,0,50.75,27.99,50.75,62.52Z"/>
      <line class="cls-20" x1="912.92" y1="1342.31" x2="912.92" y2="1301.83"/>
      <path class="cls-13" d="m958.64,1294.32c-.85,19.21-17.1,34.1-36.32,33.26-3.02-.13-6.02-.66-8.9-1.57.88-19.23,17.19-34.1,36.41-33.21,2.99.14,5.95.66,8.81,1.55v-.03Z"/>
    </g>
    <g id="PLANTS">
      <path class="cls-29" d="m3864.42,1872.74h-970.42s35.63-119.92,170.28-125.28,289.47,81.81,289.47,81.81c0,0,24.58-286.22,255.95-302.32s254.72,345.79,254.72,345.79Z"/>
      <path class="cls-28" d="m4042.05,1800.66c-31.1,44.45-78.32,72.08-78.32,72.08h-489c-54.8-111.88-52.5-260.83-40.8-323.76,3.55-19.07,27.43-26,40.45-11.6,78.62,86.77,154.69,273.63,154.69,273.63,18-200.83,124.77-387.46,182.54-475.46,15.2-23.16,50.83-16.9,57.13,10.07,41.78,178.78-38.33,349.09-41.33,355.39,34.45-66.93,92.32-116.49,131.6-144.64,18.17-13,43.35.81,42.13,23.13-5,92.11-42.38,167.59-77.14,218.89,28.48-20,60.51-32.77,87-40.81,25.56-7.75,46.37,21.19,31.05,43.08Z"/>
      <path class="cls-10" d="m3842.63,1324.64s-46.18,328.58-144.71,544.63"/>
      <path class="cls-10" d="m3985.83,1559.42s-130,264.74-221.43,309.85"/>
      <path class="cls-10" d="m3454.65,1537.52s49.84,252.22,109.2,331.75"/>
      <circle class="cls-7" cx="3954.96" cy="1434.29" r="23.21"/>
      <circle class="cls-7" cx="3321.76" cy="1713.42" r="19.8"/>
      <polyline class="cls-10" points="3777.92 1395.58 3812.36 1485.25 3875.67 1411.08"/>
      <polyline class="cls-10" points="3750.82 1444.87 3794.82 1559.42 3875.7 1464.67"/>
      <polyline class="cls-10" points="3854.89 1664.61 3854.89 1781.51 3928.82 1781.51"/>
      <polyline class="cls-10" points="3568.24 1694.58 3540.72 1829.27 3439.46 1723.06"/>
      <circle class="cls-28" cx="1064.73" cy="1664.35" r="149.06" transform="translate(-865.02 1240.35) rotate(-45)"/>
      <line class="cls-10" x1="984.76" y1="1709.91" x2="1156.1" y2="1552.49"/>
      <line class="cls-10" x1="1097.8" y1="1523.95" x2="1085.64" y2="1617.22"/>
      <line class="cls-10" x1="1058.68" y1="1641.99" x2="1200.37" y2="1611.1"/>
      <line class="cls-10" x1="1177.39" y1="1573.39" x2="1160.44" y2="1619.81"/>
      <line class="cls-10" x1="1011.64" y1="1528.92" x2="1004.6" y2="1691.67"/>
      <line class="cls-10" x1="978.72" y1="1545.78" x2="1008.1" y2="1610.72"/>
      <line class="cls-10" x1="1208.47" y1="1670.77" x2="1046" y2="1758.44"/>
      <path class="cls-29" d="m1501.27,1868.5H0c3.23-23.34,26.33-124.76,184.15-116.64,0,0,33.69-320.88,363.82-340.56,401.54-24,503.35,349.56,503.35,349.56,0,0,375.06-92.44,449.95,107.64Z"/>
      <path class="cls-28" d="m414.32,1868.5s-140.17-146.18-8.24-213c97.04-49.18,110.62,189.51,110.62,189.51,0,0-1.17-121.22,37.66-116.51s0,130.69,0,130.69c0,0,80-66,109.45-31.83s-74.14,41.19-74.14,41.19l-175.35-.05Z"/>
    </g>
    <g id="_4_HAND" data-name=" 4 HAND">
      <g id="PAPER_BAG" data-name="PAPER BAG">
        <path class="cls-23" d="m3398,522.17c-22.12,0-41.07,15.84-45,37.61l-62,343.8c-5.05,24.1,10.38,47.73,34.48,52.78,3.01.63,6.07.95,9.14.95h-157.46c-24.62,0-44.58-19.97-44.57-44.59,0-3.07.32-6.13.95-9.14l62-343.8c3.93-21.77,22.88-37.61,45-37.61h157.46Z"/>
        <path class="cls-22" d="m3367.39,550.51c3.63-18.86,22.55-28.34,41.39-28.34h-10.78c-22.12,0-41.07,15.84-45,37.61l-62,343.8c-5.05,24.1,10.38,47.73,34.48,52.78,3.01.63,6.07.95,9.14.95h51.69c24.62,0,44.58-19.97,44.57-44.59,0-3.07-.32-6.13-.95-9.14l-62.54-353.07Z"/>
        <polyline class="cls-5" points="3361.12 536.57 3361.12 897.57 3410.99 949.86"/>
        <line class="cls-5" x1="3310.75" y1="951.31" x2="3361.12" y2="897.57"/>
      </g>
      <g id="CLOTHES">
        <path class="cls-31" d="m3583,616.33c-9.27,1.5-11.5-32-11.5-32-7-103.73,37.94-176.12,49.95-190.67,7.47-8.88,14.62-14.58,20.9-13.46,15.33,2.75,21.65,61.89,4.85,126.86-12.07,46.71-47.44,106.57-64.2,109.27Z"/>
        <path class="cls-18" d="m3582.49,613.44l273.16,189.05c30.44,18,91.16-79.34,88.12-183.76s-41.13-187.61-96-198.49l-205.44-37.32s25.39,49.95-.36,130c-26.18,81.51-59.48,100.52-59.48,100.52Z"/>
        <circle class="cls-30" cx="3687.08" cy="649.12" r="12.46"/>
        <circle class="cls-30" cx="3745.29" cy="649.12" r="12.46"/>
        <circle class="cls-30" cx="3815.57" cy="542.75" r="12.46"/>
        <circle class="cls-30" cx="3812.39" cy="649.12" r="12.46"/>
        <circle class="cls-30" cx="3810.39" cy="739.13" r="12.46"/>
        <circle class="cls-30" cx="3895.57" cy="542.75" r="12.46"/>
        <circle class="cls-30" cx="3892.39" cy="649.12" r="12.46"/>
        <circle class="cls-30" cx="3890.39" cy="739.13" r="12.46"/>
        <path class="cls-30" d="m3728.64,694.01c0,5.09-3.08,9.66-7.8,11.56l-17.11-11.71c.23-6.88,6-12.26,12.87-12.03,6.61.22,11.89,5.57,12.04,12.18h0Z"/>
        <circle class="cls-30" cx="3774.4" cy="696.97" r="12.46"/>
        <circle class="cls-30" cx="3853.71" cy="486.86" r="12.46"/>
        <circle class="cls-30" cx="3854.58" cy="594.97" r="12.46"/>
        <circle class="cls-30" cx="3923.58" cy="594.97" r="12.46"/>
        <circle class="cls-30" cx="3851.4" cy="695.97" r="12.46"/>
        <circle class="cls-30" cx="3851.4" cy="780.97" r="12.46"/>
        <circle class="cls-30" cx="3686.26" cy="542.75" r="12.46"/>
        <circle class="cls-30" cx="3748.47" cy="542.75" r="12.46"/>
        <circle class="cls-30" cx="3719.37" cy="594.97" r="12.46"/>
        <circle class="cls-30" cx="3649.04" cy="591.79" r="12.46"/>
        <path class="cls-30" d="m3612.44,630.48c4.44-4.94,11.84-5.85,17.34-2.13,5.65,3.93,7,11.69,3.13,16.34l-20.47-14.21Z"/>
        <circle class="cls-30" cx="3781.58" cy="594.97" r="12.46"/>
        <circle class="cls-30" cx="3684.39" cy="436.39" r="12.46"/>
        <circle class="cls-30" cx="3747.61" cy="436.39" r="12.46"/>
        <circle class="cls-30" cx="3815.57" cy="437.26" r="12.46"/>
        <circle class="cls-30" cx="3718.5" cy="486.86" r="12.46"/>
        <path class="cls-30" d="m3654.46,472.09c6.8,1.04,11.48,7.39,10.44,14.2s-7.39,11.48-14.2,10.44c-.2-.03-.4-.07-.59-.11l4.35-24.53Z"/>
        <circle class="cls-30" cx="3776.71" cy="486.86" r="12.46"/>
        <path class="cls-30" d="m3731,401.85c-1.19,6.84-7.71,11.41-14.55,10.22-6.84-1.19-11.41-7.71-10.22-14.55.02-.12.04-.23.07-.34l24.7,4.67Z"/>
      </g>
      <g id="HAND">
        <path class="cls-13" d="m3643.21,501.42c-11.55,46.45-29.55,84.4-45.58,99.38l-30.12-19.5-97.41-63.06-12.1,26.26c-6.96,11.65-19.48,18.85-33.05,19l-38.73.5c-4.33.06-7.88-3.41-7.94-7.74,0-.02,0-.05,0-.07-.05-13.31,7.77-25.4,19.94-30.81l10.42-4.63-.87-12.59c0-10.73-8.7-19.42-19.43-19.42h-36.07c-6.55,0-12.67,3.3-16.25,8.79l-14,49.67c5.95,8.11,8.33,18.29,6.59,28.2l-1.63,9.28c-.58,3.47-3.87,5.81-7.34,5.23-.96-.16-1.87-.54-2.66-1.11l-80.71-56.79c-15.06-11.17-20.7-31.09-13.73-48.5l44.8-80.22c9-19.51,27.69-32.77,49.08-34.83l146.12-14.1c9.63,0,19.22,1.22,28.54,3.63l126.38,32.66,34,8.78c4.68,22.36,2.1,60.38-8.25,101.99Z"/>
        <path class="cls-16" d="m3276.78,453.84l-23.78,51.43c-6.97,17.41-1.33,37.33,13.73,48.5"/>
        <path class="cls-16" d="m3306.41,473.88l-23.74,51.44c-6.97,17.41-1.33,37.32,13.72,48.5"/>
        <polygon class="cls-31" points="3468.35 517.03 3487.95 472.14 3554.2 572.07 3468.35 517.03"/>
        <path class="cls-30" d="m3643.21,501.42c-11.55,46.45-29.55,84.4-45.58,99.38l-30.12-19.5c-3.28-22.81-.33-58.09,9.19-96.42,10.4-41.83,26-76.78,40.76-94.25l34,8.78c4.68,22.38,2.1,60.4-8.25,102.01Z"/>
        <path class="cls-18" d="m3643.21,501.42c-11.55,46.45-29.55,84.4-45.58,99.38l-30.12-19.5-97.41-63.06-12.1,26.26c-6.96,11.65-19.48,18.85-33.05,19l-38.73.5c-4.33.06-7.88-3.41-7.94-7.74,0-.02,0-.05,0-.07-.05-13.31,7.77-25.4,19.94-30.81l10.42-4.63-.87-12.59c0-10.73-8.7-19.42-19.43-19.42h-36.07c-6.55,0-12.67,3.3-16.25,8.79l-14,49.67c5.95,8.11,8.33,18.29,6.59,28.2l-1.63,9.28c-.58,3.47-3.87,5.81-7.34,5.23-.96-.16-1.87-.54-2.66-1.11l-80.71-56.79c-15.06-11.17-20.7-31.09-13.73-48.5l44.8-80.22c9-19.51,27.69-32.77,49.08-34.83l146.12-14.1c9.63,0,19.22,1.22,28.54,3.63l126.38,32.66,34,8.78c4.68,22.36,2.1,60.38-8.25,101.99Z"/>
      </g>
    </g>
    <g id="_3_HAND" data-name=" 3 HAND">
      <g id="PLASTIC_CUP" data-name="PLASTIC CUP">
        <path class="cls-15" d="m2435.79,341.23l129.36,191h0l2.81,4.15h0c7.23,14.66-3.13,40.09-25.34,59.93s-48.64,27.28-62.4,18.44h0l-3.81-3.26h0l-175.24-150,134.62-120.26Z"/>
        <path class="cls-15" d="m2435.79,341.23c21.08,23.61.23,60.92-36.94,94.13s-76.6,49.73-97.68,26.13-15.86-78.41,21.31-111.62,92.22-32.25,113.31-8.64Z"/>
        <ellipse class="cls-14" cx="2342.49" cy="372.3" rx="22.76" ry="12.54" transform="translate(347.4 1655.06) rotate(-41.77)"/>
        <path class="cls-19" d="m2474.1,517.39l-154.85-173.38c-14.38-16.1-17.04-39.51-6.65-58.43l26.18-47.57"/>
      </g>
      <g id="HAND-2">
        <path class="cls-26" d="m3042,50.65l-50.23,36-423.07,303.45v39.84c0,15.06-7.5,29.13-20,37.52l-55.9,37.45-.56-1c-8.38-14.36-9.63-31.79-3.41-47.21l14.13-21.14-57.31-84.8-8-11.42c-13.32-14.88-43.82-21.69-71.11-15.66l222.72-237.67,36.92-39.4c52.63-24.42,129.26-42.91,217.5-42.91,86.13.03,164.06,22.95,198.32,46.95Z"/>
        <path class="cls-31" d="m2693.05,300.91l-38.85,27.87c-91.31-34.45-136.86-106.15-155.84-145.63l8.16-8.71c23.97,28.88,87.02,94.57,186.53,126.47Z"/>
        <g id="FINGERS">
          <path class="cls-26" d="m2338.48,552.01c8.64,17.83,34.63,30.5,54.4,29.22l30-2c6.56-.44,11.53-6.11,11.09-12.67-.02-.3-.05-.6-.09-.9l-9.67-67.83c-1.49-10.33-10.34-17.99-20.77-18h-60.41c-11,0-24.89-2-35-7.61-.96-.55-2.18-.23-2.73.73-.32.55-.36,1.23-.1,1.81l33.28,77.25Z"/>
          <path class="cls-16" d="m2331.37,531.01c9.52,20,28.13,31.24,49.91,29.79l35.84-2.19c7.63-.51,12.71-8.34,11.63-16.06"/>
          <path class="cls-16" d="m2320.63,506.01c10.48,20,30.23,30.32,54.22,28.87l36.4-2.19c8.4-.51,14.57-8.48,13.38-16.19"/>
          <path class="cls-16" d="m2307.4,474.51c10.95,20,34.52,34.95,59.6,33.5l38.07-2.19c8.78-.51,15.22-7.52,14-15.24"/>
        </g>
      </g>
      <g id="CLOTHES-2">
        <path class="cls-24" d="m3055,86.01h.86l-324.19,225.15c-152.47-33.2-232.39-150-232.39-150l67.58-75.15c38.48-40.75,144.61-82.27,276.82-82.27,131.04-.01,243.08,53.03,211.32,82.27Z"/>
        <path class="cls-9" d="m2731.66,311.16c-152.47-33.2-232.39-150-232.39-150l67.58-75.15c38.49-40.75,144.61-82.27,276.83-82.27s245.08,54,210.39,83l-322.41,224.42Z"/>
        <path class="cls-23" d="m2521.16,136.81v51c-1.85-2-3.57-3.95-5.18-5.79v-39.45l5.18-5.76Z"/>
        <path class="cls-23" d="m2559.24,94.46v130.06c-1.77-1.51-3.49-3-5.18-4.47v-119.83l5.18-5.76Z"/>
        <path class="cls-23" d="m2597.31,62.01v191.4c-1.75-1.17-3.47-2.34-5.17-3.53V65.36c1.67-1.11,3.4-2.21,5.17-3.35Z"/>
        <path class="cls-23" d="m2635.4,42.53v233.54c-1.75-.91-3.47-1.83-5.18-2.75V44.79c1.7-.76,3.43-1.51,5.18-2.26Z"/>
        <path class="cls-23" d="m2673.48,28.51v265c-1.75-.69-3.49-1.39-5.2-2.09V30.18l5.2-1.67Z"/>
        <path class="cls-23" d="m2711.55,18.22v288c-1.74-.48-3.46-1-5.18-1.47V19.44c1.72-.43,3.44-.82,5.18-1.22Z"/>
        <path class="cls-23" d="m2749.64,10.92v287.77l-5.19,3.6V11.76l2.9-.47,2.29-.37Z"/>
        <path class="cls-23" d="m2787.71,6.25v266l-5.18,3.59V6.74c1.71-.18,3.47-.34,5.18-.49Z"/>
        <path class="cls-23" d="m2825.78,4.01v241.85l-5.17,3.6V4.16c1.71-.07,3.44-.15,5.17-.15Z"/>
        <path class="cls-23" d="m2863.87,4.15v215.3l-5.18,3.59V4.01c1.73,0,3.46.07,5.18.14Z"/>
        <path class="cls-23" d="m2902,7.17v185.84l-5.19,3.6V6.59c1.68.18,3.42.42,5.19.58Z"/>
        <path class="cls-23" d="m2940,13.17v153.46l-1.72,1.18-3.47,2.41V12.22c1.75.27,3.48.61,5.19.95Z"/>
        <path class="cls-23" d="m2978.1,22.52v117.68l-5.19,3.61V21.01c1.75.49,3.48,1,5.19,1.51Z"/>
        <path class="cls-23" d="m3016.18,36.41v77.38l-5.19,3.6V34.16c1.77.74,3.5,1.49,5.19,2.25Z"/>
        <polygon class="cls-23" points="3054.25 86 3054.25 87.08 3049.06 90.69 3049.06 86 3054.25 86"/>
        <path class="cls-23" d="m2781.31,276.67l-7.47,5.19h-126.84c-3.52-1.69-7-3.43-10.36-5.19h144.67Z"/>
        <path class="cls-23" d="m2836.13,238.59l-7.47,5.19h-245c-2.37-1.73-4.7-3.46-7-5.19h259.47Z"/>
        <path class="cls-23" d="m2890.94,200.52l-7.47,5.19h-344.95c-1.82-1.76-3.58-3.49-5.26-5.19h357.68Z"/>
        <path class="cls-23" d="m2945.76,162.44l-5.75,4-1.72,1.19h-434.22c-1.8-2.33-3.1-4.1-3.89-5.19h445.58Z"/>
        <polygon class="cls-23" points="3000.57 124.37 2993.11 129.55 2527.69 129.55 2532.35 124.37 3000.57 124.37"/>
        <polygon class="cls-23" points="3055.39 86.29 3054.25 87.08 3049.06 90.69 3047.93 91.47 2561.93 91.47 2566.59 86.29 3055.39 86.29"/>
        <path class="cls-23" d="m3045.82,53.47h-433.46c3.33-1.75,6.77-3.47,10.31-5.18h415.82c2.67,1.72,5.12,3.45,7.33,5.18Z"/>
      </g>
    </g>
    <g id="_2_HAND" data-name=" 2 HAND">
      <g id="BOTTLE">
        <path class="cls-3" d="m1775.46,642.01v241.74c0,20.5-36.08,37.12-80.59,37.12s-80.59-16.62-80.59-37.12v-241.74c0-43.02,11.33-85.29,32.83-122.55l20-34.6v-66.92c0-12.32,12.44-22.31,27.78-22.31s27.77,10,27.77,22.31v66.89l20,34.6c21.5,37.27,32.81,79.55,32.8,122.58Z"/>
        <line class="cls-11" x1="1756.25" y1="735.86" x2="1756.25" y2="773.97"/>
        <path class="cls-11" d="m1723.41,519.43c21.52,37.27,32.84,79.55,32.84,122.58v59.9"/>
        <ellipse class="cls-31" cx="1694.87" cy="418.62" rx="20.5" ry="16.47"/>
        <path class="cls-3" d="m1758.54,876.01c0,16.19-28.51,29.32-63.67,29.32s-63.67-13.18-63.67-29.32,28.51-38.48,63.67-38.48,63.67,22.23,63.67,38.48Z"/>
      </g>
      <g id="HAND-3">
        <path class="cls-23" d="m1833.72,335.12v73.34c0,19.25-10.91,36.83-28.16,45.38l-82,40.68c-10.19,5.06-20.83-6-15.39-16l15.35-36.72c2.29-5.46,2.64-11.54,1-17.23l-14-48c-3.81-6.83-11.02-11.06-18.84-11.06h-29.84c-14.01,0-25.36,11.34-25.37,25.35h0v17.83l14.07,7.73c8.75,5.27,13.1,14.72,13.1,24.93v13.62h-39c-43.45,0-66.92-22.22-90.23-58.9l-51.08-80.41c15.43-29.05,66.82-59.37,131.93-74.82,29.86-7.09,58.55-10.09,83.45-9.43h0l112.61,64.88c13.87,8.01,22.4,22.82,22.4,38.83Z"/>
        <path class="cls-16" d="m1776.36,466.09c17.24-8.55,28.14-24.25,28.14-43.49v-50.74"/>
        <path class="cls-16" d="m1727.36,492.47c17.24-8.55,37.57-32.73,37.57-52v-50.71"/>
      </g>
      <g id="CLOTHES-3">
        <path class="cls-15" d="m1663,164.78c-29.34-3.39-66.59-.52-105.75,9.47-56,14.27-101.57,39.48-122.6,65l-108.56-171.41c-23.85-41.37,58.39-71,137.73-63.74,62.75,5.71,134.92,33.66,151.57,70.43l47.61,90.25Z"/>
        <line class="cls-19" x1="1356.68" y1="17.81" x2="1356.68" y2="115.77"/>
        <line class="cls-19" x1="1391.54" y1="8.81" x2="1391.54" y2="170.42"/>
        <line class="cls-19" x1="1426.41" y1="3.81" x2="1426.41" y2="225.07"/>
        <line class="cls-19" x1="1461.27" y1="4.81" x2="1461.27" y2="215.2"/>
        <line class="cls-19" x1="1496.13" y1="8.81" x2="1496.13" y2="196.2"/>
        <line class="cls-19" x1="1530.99" y1="18.81" x2="1530.99" y2="183.2"/>
        <line class="cls-19" x1="1565.86" y1="31.81" x2="1565.86" y2="172.2"/>
        <line class="cls-19" x1="1600.72" y1="55.81" x2="1600.72" y2="166.2"/>
        <line class="cls-19" x1="1635.58" y1="113.98" x2="1635.58" y2="163.82"/>
        <path class="cls-15" d="m1698.62,231.37c-24.89-.65-53.59,2.35-83.45,9.44-65.1,15.45-116.5,45.77-131.94,74.82l-48.56-76.43c21-25.47,66.62-50.68,122.61-64.95,39.16-10,76.4-12.87,105.75-9.47l34.97,66.23.62.36Z"/>
        <circle class="cls-19" cx="1642.43" cy="195.39" r="12.51"/>
      </g>
    </g>
    <g id="_1_HAND" data-name=" 1 HAND">
      <g id="BANANA">
        <path class="cls-23" d="m944.69,602.1v273.45c0,15.52,12.58,28.09,28.1,28.1h-31.94c-28.11,0-50.9-22.79-50.9-50.9h0v-83.6l-5.41,13c-8.21,19.61-30.76,28.85-50.37,20.64-18.67-7.82-28.1-28.75-21.57-47.91l1-3c0,10.63,8.61,19.24,19.24,19.24h2c10.63,0,19.25-8.62,19.25-19.25v-220.78c0-28.59,23.17-51.76,51.76-51.76h0v-53.75h33.84v53.74h0c23.34-.03,42.28,18.87,42.31,42.21v100.38c0,23.23,2.87,91.81,36.71,91.14,0,0-3.64-22.93,19.58-22.5,33.84.62,30.87,63.89-28.9,64.31-58.39.41-66.39-73.79-64.7-152.76Z"/>
        <path class="cls-17" d="m888,781.15v-253.14c0-15.99,7.56-31.04,20.39-40.58"/>
        <path class="cls-17" d="m1015.69,709.01c-.61,14.84,25.56,18.6,25.56,4"/>
      </g>
      <g id="CLOTHES-4">
        <path class="cls-31" d="m635.79,359.15c0,69.32-21.14,125.58-47.29,126.15-26.15-.57-47.29-56.83-47.29-126.15s21.14-125.59,47.29-126.14c26.15.55,47.29,56.81,47.29,126.14Z"/>
        <path class="cls-3" d="m494.34,483.06c-26.35,0-47.71-55.48-47.71-123.91s21.37-123.92,47.71-123.92h93.24c-26.35,0-47.71,55.48-47.71,123.92s21.36,123.91,47.71,123.91h-93.24Z"/>
        <path class="cls-16" d="m494.34,235.23s-12.88-29.87-140.92-38c0,0-94.07,46.53-140.53,156.38-46.59,110.17-9.47,174.4-9.47,174.4,157.35,10.16,290.92-44.94,290.92-44.94"/>
        <path class="cls-16" d="m461.69,268.8s-24-12.76-70.92-15.24"/>
        <line class="cls-16" x1="456.63" y1="283.24" x2="414.49" y2="283.24"/>
        <path class="cls-16" d="m452.85,422.26c-12.11,6.76-24.74,12.53-37.77,17.26"/>
        <line class="cls-16" x1="378.49" y1="413.3" x2="451.42" y2="413.3"/>
      </g>
      <g id="HAND-4">
        <path class="cls-22" d="m1050.35,353.5h-30v46.8c0,4.48-2.01,8.73-5.48,11.57l-52.66,43.87c-5.49,4.97-13.97,4.55-18.94-.94-1.47-1.62-2.52-3.58-3.06-5.7l-10.21-40.78c-5.16-18.52-22.04-31.33-41.27-31.31h-27.67c-12.33,0-22.33,9.99-22.33,22.33,0,10.73,7.63,19.95,18.17,21.94l17.19,3.26c19.32,3.67,33.29,20.56,33.29,40.22h-291c-20.5,0-49.74-47.48-54.58-105.59-5.91-71.09,7.89-105.59,28.39-105.59h246.6c9.99,0,19.94,1.43,29.52,4.26l83.81,22.17c10.84,3.19,18.47,7.26,27.73,13.74l76.05,46.46c3.41,1.96,4.58,6.32,2.62,9.72-1.27,2.21-3.62,3.57-6.17,3.57Z"/>
        <path class="cls-16" d="m963.72,288.06l47.16,51.78c4.42,4.86,6.88,11.19,6.88,17.76v41"/>
        <path class="cls-16" d="m948.88,323.01l38.42,43c4.43,4.86,6.88,11.2,6.88,17.77v40.95"/>
        <path class="cls-16" d="m924.43,343.94l38.43,43c4.42,4.86,6.88,11.2,6.88,17.77v40.95"/>
      </g>
    </g>
  </g>
</svg>