<?xml version="1.0" encoding="UTF-8"?>
<svg id="Layer_2" data-name="Layer 2" xmlns="http://www.w3.org/2000/svg" xmlns:xlink="http://www.w3.org/1999/xlink" viewBox="0 0 18.19 56.88">
  <defs>
    <style>
      .cls-1 {
        fill: url(#linear-gradient);
      }

      .cls-2 {
        fill: url(#linear-gradient-2);
      }
    </style>
    <linearGradient id="linear-gradient" x1="9.1" y1="18.65" x2="9.1" y2="51.65" gradientTransform="translate(0 51.65) scale(1 -1)" gradientUnits="userSpaceOnUse">
      <stop offset="0" stop-color="#a0a6ba"/>
      <stop offset="1" stop-color="#c6ccda"/>
    </linearGradient>
    <linearGradient id="linear-gradient-2" x1="9.1" y1="-5.23" x2="9.1" y2="19.74" gradientTransform="translate(0 51.65) scale(1 -1)" gradientUnits="userSpaceOnUse">
      <stop offset="0" stop-color="#474f72"/>
      <stop offset="1" stop-color="#878c9f"/>
    </linearGradient>
  </defs>
  <g id="Layer_1-2" data-name="Layer 1">
    <g id="Sausage">
      <path class="cls-1" d="m15.92,1.18c-.02,3.77-3.09,6.81-6.86,6.79S2.26,4.88,2.27,1.11C2.26.48,1.73-.01,1.1,0,.48.03-.02.55,0,1.18c0,4.58,3.41,8.44,7.96,9.02v21.68c0,.63.51,1.14,1.14,1.14s1.14-.51,1.14-1.14V10.19c4.57-.58,7.99-4.48,7.96-9.09-.02-.63-.55-1.12-1.18-1.1s-1.12.55-1.1,1.18Z"/>
      <path class="cls-2" d="m6.82,54.61v-20.46c0-1.26,1.02-2.27,2.27-2.27s2.27,1.02,2.27,2.27v20.46c0,1.26-1.02,2.27-2.27,2.27s-2.27-1.02-2.27-2.27Z"/>
    </g>
  </g>
</svg>