<svg xmlns="http://www.w3.org/2000/svg" xmlns:xlink="http://www.w3.org/1999/xlink" width="72.892" height="115.779" viewBox="0 0 72.892 115.779">
  <defs>
    <linearGradient id="linear-gradient" x1="-0.19" y1="0.892" x2="1.19" y2="0.108" gradientUnits="objectBoundingBox">
      <stop offset="0" stop-color="#7aa8d7"/>
      <stop offset="1" stop-color="#c3d2e7"/>
    </linearGradient>
    <linearGradient id="linear-gradient-2" x1="0.148" y1="1.339" x2="0.867" y2="-0.304" xlink:href="#linear-gradient"/>
    <linearGradient id="linear-gradient-3" x1="0.5" y1="1" x2="0.5" y2="0" xlink:href="#linear-gradient"/>
    <linearGradient id="linear-gradient-5" x1="0" y1="0.5" x2="1" y2="0.5" xlink:href="#linear-gradient"/>
    <linearGradient id="linear-gradient-6" x1="0.5" y1="1" x2="0.5" gradientUnits="objectBoundingBox">
      <stop offset="0" stop-color="#d4d8e1"/>
      <stop offset="1" stop-color="#f3f4f5"/>
    </linearGradient>
  </defs>
  <g id="Milk" transform="translate(-2 -1)">
    <rect id="Rectangle_8" data-name="Rectangle 8" width="46.381" height="82.059" transform="translate(2 34.717)" fill="url(#linear-gradient)"/>
    <path id="Path_15" data-name="Path 15" d="M61.749,5H16.937L2,31.14H48.679Z" transform="translate(0 3.469)" fill="url(#linear-gradient-2)"/>
    <path id="Path_16" data-name="Path 16" d="M53.14,101.155H27V19H53.14Z" transform="translate(21.679 15.609)" fill="url(#linear-gradient-3)"/>
    <rect id="Rectangle_9" data-name="Rectangle 9" width="46.381" height="5.708" transform="translate(2 111.068)" fill="#5b8dc9"/>
    <path id="Path_17" data-name="Path 17" d="M53.14,65.34c0,.373,2.8.261-26.14.261V60H53.14Z" transform="translate(21.679 51.162)" fill="#5b8dc9"/>
    <path id="Path_18" data-name="Path 18" d="M40.07,5,27,31.14H53.14Z" transform="translate(21.679 3.469)" fill="url(#linear-gradient-3)"/>
    <path id="Path_19" data-name="Path 19" d="M13.734,1H51.077a3.734,3.734,0,0,1,3.734,3.734V8.469H10V4.734A3.734,3.734,0,0,1,13.734,1Z" transform="translate(6.937 0)" fill="url(#linear-gradient-5)"/>
    <ellipse id="Ellipse_1" data-name="Ellipse 1" cx="5.708" cy="5.352" rx="5.708" ry="5.352" transform="translate(26.261 16.164)" fill="url(#linear-gradient-6)"/>
    <path id="Path_20" data-name="Path 20" d="M2,57.805c20.539,0,22.406,16.8,46.679,16.8V61.539C24.406,61.539,22.539,28.08,2,28.08Z" transform="translate(0 23.482)" fill="url(#linear-gradient-6)"/>
    <path id="Path_21" data-name="Path 21" d="M52.094,59.07H27V46H51.366" transform="translate(21.679 39.022)" fill="url(#linear-gradient-6)"/>
  </g>
</svg>
