<svg xmlns="http://www.w3.org/2000/svg" xmlns:xlink="http://www.w3.org/1999/xlink" width="100" height="100" viewBox="0 0 100 100">
  <defs>
    <linearGradient id="linear-gradient" x1="-0.19" y1="0.892" x2="1.19" y2="0.108" gradientUnits="objectBoundingBox">
      <stop offset="0" stop-color="#7aa8d7"/>
      <stop offset="1" stop-color="#c3d2e7"/>
    </linearGradient>
    <linearGradient id="linear-gradient-2" x1="0.148" y1="1.339" x2="0.867" y2="-0.304" xlink:href="#linear-gradient"/>
    <linearGradient id="linear-gradient-3" x1="0.5" y1="1" x2="0.5" y2="0" xlink:href="#linear-gradient"/>
    <linearGradient id="linear-gradient-5" x1="0" y1="0.5" x2="1" y2="0.5" xlink:href="#linear-gradient"/>
    <linearGradient id="linear-gradient-6" x1="0.5" y1="1" x2="0.5" gradientUnits="objectBoundingBox">
      <stop offset="0" stop-color="#d4d8e1"/>
      <stop offset="1" stop-color="#f3f4f5"/>
    </linearGradient>
  </defs>
  <g id="Group_1" data-name="Group 1" transform="translate(-1006 -301)">
    <path id="Path_72" data-name="Path 72" d="M50,0A50,50,0,1,1,0,50,50,50,0,0,1,50,0Z" transform="translate(1006 301)" fill="#fff"/>
    <g id="Milk" transform="translate(1038.015 324.611)">
      <rect id="Rectangle_8" data-name="Rectangle 8" width="20.342" height="35.99" transform="translate(2 15.788)" fill="url(#linear-gradient)"/>
      <path id="Path_15" data-name="Path 15" d="M28.2,5H8.551L2,16.465H22.473Z" transform="translate(0 -0.724)" fill="url(#linear-gradient-2)"/>
      <path id="Path_16" data-name="Path 16" d="M38.465,55.032H27V19H38.465Z" transform="translate(-4.527 -3.26)" fill="url(#linear-gradient-3)"/>
      <rect id="Rectangle_9" data-name="Rectangle 9" width="20.342" height="2.504" transform="translate(2 49.274)" fill="#5b8dc9"/>
      <path id="Path_17" data-name="Path 17" d="M38.465,62.342c0,.164,1.228.115-11.465.115V60H38.465Z" transform="translate(-4.527 -10.685)" fill="#5b8dc9"/>
      <path id="Path_18" data-name="Path 18" d="M32.732,5,27,16.465H38.465Z" transform="translate(-4.527 -0.724)" fill="url(#linear-gradient-3)"/>
      <path id="Path_19" data-name="Path 19" d="M11.638,1H28.016a1.638,1.638,0,0,1,1.638,1.638V4.276H10V2.638A1.638,1.638,0,0,1,11.638,1Z" transform="translate(-1.449 0)" fill="url(#linear-gradient-5)"/>
      <ellipse id="Ellipse_1" data-name="Ellipse 1" cx="2.504" cy="2.347" rx="2.504" ry="2.347" transform="translate(12.641 7.651)" fill="url(#linear-gradient-6)"/>
      <path id="Path_20" data-name="Path 20" d="M2,41.117c9.008,0,9.827,7.37,20.473,7.37V42.755C11.827,42.755,11.008,28.08,2,28.08Z" transform="translate(0 -4.904)" fill="url(#linear-gradient-6)"/>
      <path id="Path_21" data-name="Path 21" d="M38.006,51.732H27V46H37.687" transform="translate(-4.527 -8.149)" fill="url(#linear-gradient-6)"/>
    </g>
  </g>
</svg>
