<?xml version="1.0" encoding="UTF-8"?>
<svg id="Layer_2" data-name="Layer 2" xmlns="http://www.w3.org/2000/svg" xmlns:xlink="http://www.w3.org/1999/xlink" viewBox="0 0 123.9 156.87">
  <defs>
    <style>
      .cls-1, .cls-2, .cls-3 {
        fill: none;
      }

      .cls-4 {
        clip-path: url(#clippath);
      }

      .cls-2, .cls-5 {
        stroke-width: 1.3px;
      }

      .cls-2, .cls-5, .cls-3, .cls-6 {
        stroke: #1b1c1e;
        stroke-miterlimit: 10;
      }

      .cls-7 {
        fill: #f9c8a7;
      }

      .cls-8, .cls-5 {
        fill: #fff;
      }

      .cls-9 {
        fill: #ffcb6e;
      }

      .cls-10 {
        fill: #cecece;
      }

      .cls-11 {
        fill: #080809;
      }

      .cls-12, .cls-6 {
        fill: #1b1c1e;
      }

      .cls-13 {
        opacity: .78;
      }

      .cls-3 {
        stroke-width: 1.3px;
      }

      .cls-6 {
        stroke-width: 1.37px;
      }
    </style>
    <clipPath id="clippath">
      <path class="cls-1" d="m78.22,122.3c-11-7-23-12-34-4-8.5,5.9-10.2,15.2-8.3,24.3,3.5-1.4,6.8-2.2,8.9-1.3,8.5,3.6,8.3,11.5,8.1,13.1,2.6-.2,5-.3,7.1-.3h3.8c2.1,0,4.5.1,7.1.3-.1-1.6-.4-9.5,8.1-13.1,2.2-.9,5.6-.1,9.3,1.4.6-7.9-2.7-15.5-10.1-20.4Z"/>
    </clipPath>
  </defs>
  <g id="Layer_1-2" data-name="Layer 1">
    <g id="Illustration">
      <g>
        <path class="cls-12" d="m7.62,153.6s-4.9,2.1,8.5,2.7c13.5.6,84.6.9,91.9,0s15.5-2,1.7-3.2c-10.4-.9-25.7-.8-36.3-1.1-19.1-.5-60-.3-65.8,1.6Z"/>
        <g>
          <g>
            <path class="cls-12" d="m32.72,13.6s-5.3-10.1-14.6-8.8-13.6,16.1-3.3,24.7c10.4,8.5,17.9-15.9,17.9-15.9Z"/>
            <path class="cls-12" d="m94.42,13.6s5.3-10.1,14.6-8.8,13.6,16.1,3.3,24.7c-10.4,8.5-17.9-15.9-17.9-15.9Z"/>
          </g>
          <path class="cls-7" d="m52.92,154.5c-9.8.7-22.8,1.9-34.3-1.5,3.3-2.5,19.8-14.2,26.2-11.6,8.5,3.5,8.3,11.5,8.1,13.1Z"/>
          <path class="cls-7" d="m105.12,153c-11.5,3.5-24.4,2.2-34.3,1.5-.1-1.6-.4-9.5,8.1-13.1,6.5-2.7,22.9,9.1,26.2,11.6Z"/>
          <path class="cls-8" d="m105.22,153h0c-3.3-2.5-19.8-14.2-26.1-11.6-8.5,3.6-8.3,11.5-8.1,13.1-2.6-.2-5-.3-7.1-.3h-3.8c-2.1,0-4.5.1-7.1.3.1-1.6.4-9.5-8.1-13.1-6.4-2.7-22.8,9.1-26.2,11.6C-.18,147.3-4.28,129.1,4.22,75c.4-2.4.8-4.8,1.2-7.3.5-3.1,1.1-6,1.7-8.8.4-1.7.8-3.3,1.1-4.9,1.2-4.9,2.6-9.4,4.1-13.5C23.62,9.5,42.72.3,62.02.1c19.3.2,38.3,9.4,49.7,40.4,1.5,4.1,2.9,8.6,4.1,13.5.4,1.6.8,3.2,1.1,4.9.6,2.8,1.2,5.7,1.7,8.8.4,2.5.8,4.9,1.2,7.3h0c8.3,54,4.2,72.3-14.6,78Z"/>
          <g>
            <g>
              <path class="cls-6" d="m58.82,50.4c-1.7.1-2.7,2-1.6,3.4,1.1,1.4,2.8,2.7,5.5,2.9,2.9.2,4.9-1.2,6.1-2.8,1-1.3.1-3.2-1.5-3.3-2.4-.1-5.6-.3-8.5-.2Z"/>
              <path class="cls-2" d="m63.32,56.7s.2,4.3.1,4.6c-.1.3-4.8,3.1-11,2.5"/>
              <path class="cls-2" d="m63.42,61.4s3.6,3,10.2,3.3"/>
            </g>
            <g>
              <circle class="cls-12" cx="40.12" cy="45.1" r="7"/>
              <circle class="cls-12" cx="85.92" cy="45.1" r="7"/>
            </g>
            <path class="cls-2" d="m57.72,63.6s.4,4.5,5.3,4.7c5.5.2,5.8-4.5,5.8-4.5"/>
          </g>
          <path class="cls-9" d="m63.82,90.5c-1-1.1-2.7-1.1-3.7,0-2.8,2.9-7.9,9.3-8.8,17.9-1.1,11.2,5,15.6,10,15.8,5,.1,12.2-4.1,10.8-15.8-1.2-9.2-5.7-15.1-8.3-17.9Z"/>
          <path class="cls-10" d="m75.42,1.6c0,11.8-5.9,23.1-12.4,22.9-12.9-.3-14.6-22.9-14.6-22.9,4.6-1.1,9.2-1.6,13.5-1.6,4.3,0,8.9.5,13.5,1.6Z"/>
          <g>
            <g>
              <g>
                <path class="cls-3" d="m52.92,154.5v.3"/>
                <path class="cls-2" d="m44.82,155.1s-.1-3.4-.6-4.5"/>
                <path class="cls-2" d="m37.62,155.3s-.7-2.9-1.8-3.6"/>
              </g>
              <path class="cls-2" d="m44.82,141.4s.8-1.7,1-5.4"/>
            </g>
            <g>
              <g>
                <path class="cls-3" d="m70.92,154.8v-.3"/>
                <path class="cls-2" d="m79.02,155.1s.1-3.4.6-4.5"/>
                <path class="cls-2" d="m86.22,155.3s.7-2.9,1.8-3.6"/>
              </g>
              <path class="cls-2" d="m79.02,141.4s-.8-1.7-1-5.4"/>
            </g>
          </g>
          <g>
            <g>
              <path class="cls-5" d="m39.42,83.4s7.7,10.2,16.7,17.2c4.7,3.6,7.6,10.9,2.3,15.1-6,4.7-38.8-3.4-50.9-26"/>
              <path class="cls-2" d="m61.32,109.5s-3.6-.7-5.4-2.1"/>
              <path class="cls-2" d="m59.02,115.2s-4.3-.2-5.4-.8"/>
            </g>
            <g>
              <path class="cls-5" d="m84.82,83.4s-7.7,10.2-16.7,17.2c-4.7,3.6-7.6,10.9-2.3,15.1,6,4.7,38.8-3.4,50.9-26"/>
              <path class="cls-2" d="m62.92,109.5s3.6-.7,5.4-2.1"/>
              <path class="cls-2" d="m65.22,115.2s4.3-.2,5.4-.8"/>
            </g>
          </g>
          <g>
            <g>
              <path class="cls-10" d="m22.62,50.3c-.5,4.8-10,4.2-14.5,3.6,1.2-4.9,2.6-9.4,4.1-13.5,3,1.2,10.9,4.8,10.4,9.9Z"/>
              <path class="cls-10" d="m12.92,66.9c-.7,4.6-5.5,7-8.8,8,.4-2.4.8-4.8,1.2-7.3.5-3.1,1.1-6,1.7-8.8,2.7,1,6.6,3.3,5.9,8.1Z"/>
            </g>
            <g>
              <path class="cls-10" d="m115.72,53.9c-4.5.6-14,1.2-14.5-3.6-.5-5.1,7.4-8.7,10.4-9.9,1.5,4.1,2.9,8.6,4.1,13.5Z"/>
              <path class="cls-10" d="m119.72,74.9c-3.3-1.1-8.1-3.4-8.8-8-.7-4.8,3.2-7.1,5.9-8.1.6,2.8,1.2,5.7,1.7,8.8.4,2.5.8,5,1.2,7.3Z"/>
            </g>
          </g>
          <g class="cls-4">
            <g class="cls-13">
              <g>
                <path class="cls-11" d="m57.22,156.5c0-.1.1-.2.1-.4-.1,0-.1.1-.1.4Z"/>
                <path class="cls-11" d="m46.92,155.3l-.1.4c.1-.2.1-.3.1-.4Z"/>
                <path class="cls-11" d="m58.02,153.5c.1-.1.2-.3.3-.5l-.3.5Z"/>
                <path class="cls-11" d="m57.02,151.7c0-.1,0-.2-.1-.2,0,.1.1.1.1.2Z"/>
                <path class="cls-11" d="m67.12,155.8h.2v-.1c0-.1-.1.1-.2.1Z"/>
                <path class="cls-11" d="m66.82,155.4l.1-.1s0,.1-.1.1Z"/>
                <path class="cls-11" d="m66.42,157.1c0-.1.1-.2.1-.4-.1.1-.2.2-.1.4Z"/>
                <path class="cls-11" d="m57.22,156.7v-.2q-.1.1,0,.2Z"/>
                <path class="cls-11" d="m43.12,154.7c-.1,0-.2,0-.3.1q.2.1.3-.1Z"/>
                <path class="cls-11" d="m63.82,156.1c-.2-1.2.4-.1.3-1.3-.2.3-.3.5-.4-.1.1-.7.4,0,.4-1l-.3.4c-.2-.5,0-1.3-.2-1.2-.1,1.4-.9-.5-1.1-.3l.1-.1-.4-.7v-.1.3c-.2-.7-.5-1.2-.9-1-.1.8-1,.3-1.2,1,.1-.2.3-.2.4,0v1c-.3,0-.1-.9-.3-.3.1,1.4.4,0,.7.1-.1.3-.2.6-.3.7.4,0,.9.5,1.1-.9.1.3.1.8,0,1,.3-.8.3.7.5,0,0,1.2-.6.7-.9,1.4-.5-1-1,0-1.4.2-.1-.9.2-1.8,0-2.3-.5-.6-.4.5-.7,1.1-.3-.3-.1-1.6-.6-1.6l.3-.6c-.3-1.3-.3.5-.5.3.1.3.1.7.4.6,0,.5-.1.7-.2.8h.1c-.1.7-.1,1.4-.4,1,.2-.8-.3-.6-.4-1l.1-.2c-.2.3-.5.2-.6.3v-.2c-.2.3-.2,1.3-.5,1.1,0-.4.3-1.5,0-1.3,0-.6.3-.7.6-.5-.3-.2-.4-1.2-.1-1.3-.1-.8-.3.3-.5,0v.7c0-1-.6-.1-.6.7l.3-.6c0,.8-.3,1.4-.2,1.9-.2-1.3-.8.7-1-.5l.1.7c-.6-.4-1.2,1.1-1.8,1.4.2-.4.2-1.9.7-1.4-.6-.3-.2-1.4-.4-2.1-.5-.5-.2,1.3-.4,1.8l.3-.3c-.4,1.7-1.2-.4-1.9.6,0-.4.1-.2.2-.4-.3-.9-.3.2-.5.5-.3-.1-.7-.5-.4-1.6-.3-.3,0,.6-.2.9l-.1-.2-.4,1.1c-.3-.3-.6-.9-.7-1.9-.7.2-.3,2.3-.9,2.6-.3-.5.1-.8.1-1.1l-.4.1c.2-1.1.5-.5.6-1.8-.4,1.3-.5.4-1,1.2v.1c-.3.9-.7.2-1,.3.2-.5.5-.5.7-.7-.3-.4-1.1-.1-1.5,1-.2-.2-.5-.7-.2-1.1-.6-.2-.4,1.5-.9,1.1l.1-.8c-.5-1.2-1.3.9-1.8-.2l-.1.9c-.1-.4-.3-.6-.3-1l.3-.3c-.2-.8-.4.7-.6.1,0,.3.1.9.1,1.2.7-.1,1.3.2,1.9.4.6.2,1.3.5,1.9,0,0-.1-.1-.3,0-.5.1.3.4,0,.3.6l-.1.1c.4-.2.6,1.1.8,1.1.2-.7.7.4.6-.9l.2.8c.1-.4.1-1.1.2-1.3.2.1.2.6,0,.9.9.6,1.9.5,2.9.2l-.3.6c.2.3.8-1,.6.5.5-.6,1.2.5,1.3-1.1.3,1.6,1.1.7,1.7.5-.1-1.4.5-.4.7-1,.1,1.1-.5,1.1-.5,1.8.6-1.7,1.8,1.2,2-1.6.1.1.1.2.1.3.1,0,.3.5.4.6.1-.5-.2-.7.1-.9.2.1.1.9.2,1.2.4-.6,1.1-.9,1.2-2,.1.3.3.9.2,1.1.7-.9.7.1,1.4-.5-.2.1-.1,1.2-.4.7.4,1.5,1.1-.4,1.7.4l.2-1c.3-.2.4.7.2,1.1.6.5.9-.1,1.3-.2,0,.1,0,.3-.1.3l.6-.1c0-.2.2-.7.2-1.3-.3,1-.4,1.3-.8,1Z"/>
                <path class="cls-11" d="m58.42,151.7c.1.2.1.4.2.4-.1-.1-.1-.2-.2-.4Z"/>
                <path class="cls-11" d="m70.22,153.3c-.2-1.1-.4.2-.7,0,.2-.2.1-.8.1-1.1-.2,1.4-.4-.3-1,.1-.1-.5.2-.6.2-1.1-.3.4-.8.6-.8,1.4-.6,0-1-.3-1.3-.1.4-.4,0-.9.2-1.7-.3,1-1.1,2.4-1.6,3.8-.2-1.1-.2-1.2-.2-2.1-.7-.7-.1,1-.8.7l.3.2c-.3.3-.2,1.4-.3,2.1l.7-.2c0,.7-.4.7-.6.9-.2.9.5.6.4,1.3.1-.6.4-.5.6-.8l.1.4c.4.3.5-.7.8-.7v.2c.1-.4.2-1,.3-1.2l-.1.1c.2-.9.8-1.6.3-2.5l.8.2c0,.9,0,2.4-.5,2.6v.4c.4.5.9-.9.6-1.7.1-2.2,1.2-.2,1.6-1.2.1.5-.2.8-.3,1.2-.2.1-.3.1-.3-.4-.7.4.3,1.8-.5,1.8-.4-.2.4-1-.2-1l-.3,1.8c.4-.1.7-.5.9-.8.8-.7,1.5-.9,1.9-1,.5,0,.8.1.8.1,2.4-.8,4.7-1.7,7-2.7.7-.3,1-.5,1.2-.7-.2,0-.6.1-.5,0-.1.1-.3.2-.7.3-.1-.1.3-.1.2-.1h-.1c0-.1.1-.1.2-.1-.5-.1-1.3-.1-1.6.3-.4-.2.2-.3.4-.4-1.3-.2-2.2-.2-3.4-.2.1.6-.1.4-.2.8l-.1-.2c.1.1-.1.6.2.7-.8-.4-.8,1-1.2,1.5v-.4c-.4.2-.5.2-.8.5-.7-.7.6-.3.3-1.2l-.2.2c.1-.4.1-1.1.3-1.4-.6.7-.9-.2-1.6.3,0-.5.6-.9.8-1-.2-.1-.6.3-.7-.2v.6c-.4.1,0-.6-.2-1-.7.2.4,2.2-.4,2.7Z"/>
                <path class="cls-11" d="m60.32,153.6c.1.1.2,0,.3-.1-.1.1-.2.1-.3.1Z"/>
                <path class="cls-11" d="m62.32,150.5c.1.4-.1.4-.1.9.1-.2.4-.2.1-.9Z"/>
                <path class="cls-11" d="m31.82,149.6c-.1,0-.3-.1-.3-.1.1,0,.2.1.4.1h-.1Z"/>
                <path class="cls-11" d="m32.52,149.9c.1.1.2.1.3.2.1,0,.2-.1.3-.1-.4-.1-.3,0-.6-.1Z"/>
                <path class="cls-11" d="m33.52,150.3l.2-.1h-.5l.2.1c-.1,0,0,0,.1,0h.2-.2Z"/>
                <path class="cls-11" d="m33.92,150.4c0-.1-.1-.1,0,0q-.1-.1,0,0Z"/>
                <path class="cls-11" d="m34.52,151.1c0-.1.2-.2.3-.3-.3-.2-.5.2-.7,0,.5,0-.1-.2-.2-.4,0,.2.1.4.4.6l.1-.1c.2,0,0,.1.1.2Z"/>
                <path class="cls-11" d="m36.62,151.1l-.4.3c0-.2-.4-.3-.3-.6-.2,0-.2.1-.4.2-.1-.2-.1-.3-.3-.2.6.4.4.4.9.7,0,.1-.1,0-.2,0l.3.3c.1-.4.6-.3.4-.7Z"/>
                <path class="cls-11" d="m37.02,151.6c-.3,0-.6.3-.5.6.2,0,.5-.1.7-.1-.1-.1-.4-.2-.2-.5Z"/>
                <path class="cls-11" d="m37.52,151.7c.1.2.1.8.5.4-.4,0-.1-.7-.5-.4Z"/>
                <path class="cls-11" d="m39.62,152.6l-.5-.5c0-.7.3-.2.6-.5-.5-.2-.4.1-.9.4-.1-.1-.4.2-.7.3.9-.2.6,1.5,1.5.3Z"/>
                <polygon class="cls-11" points="38.52 151.7 38.42 152 38.72 151.8 38.52 151.7"/>
                <path class="cls-11" d="m40.92,153.8c.2,1.1.8-.4,1.2.1-.1.1,0,.1-.1.2h.4v.2c.1-.6.5-.8.7-1.3-.3-.7-.3.8-.5,0,.1-.3.2-.7.3-.9-.3.3-.4.7-.5,1-.2,0-.1-.3-.1-.6-.3.3-.5,1.2-.8.9-.2-.6.3-.8-.2-.7.1,1-.4-.2-.7.3-.3-.3-.4-.8-.3-1.1-.1.7-.5,1.2-.8,1.3.2-.1.4-.3.7-.4v.8c.3-.1.5,0,.7.2h0Z"/>
                <path class="cls-11" d="m42.82,152.2c0-.1.1-.1.1-.2l-.1.2Z"/>
                <polygon class="cls-11" points="40.12 151.8 40.32 151.7 40.22 151.5 40.12 151.8"/>
                <path class="cls-11" d="m43.22,151.5c-.1,0-.1.3-.1.3l.2-.4-.1.1Z"/>
                <polygon class="cls-11" points="43.42 152.1 43.62 152.7 43.72 152.3 43.42 152.1"/>
                <path class="cls-11" d="m51.02,153.1c-.2-.4-.2.4-.3,1,.4.2.1-.7.3-1Z"/>
                <path class="cls-11" d="m55.82,152.1c-.3-.5-.5.3-.8.3.3.4.6.1.8-.3Z"/>
                <path class="cls-11" d="m57.82,149.2c-.1.3-.1.4,0,.5l-.2,1.5c.4.5.2-1.3.2-2Z"/>
                <path class="cls-11" d="m60.12,149.1l-.3.5h.2c-.1.6-.1.9-.2,1.3.1-.2.4-.8.3-1.8Z"/>
                <path class="cls-11" d="m59.32,151.3l.1-.1c0-.2,0-.4-.1.1Z"/>
                <path class="cls-11" d="m59.62,151.2v-.2q-.1.1-.2.2c.1.1.2.2.2,0Z"/>
                <path class="cls-11" d="m60.42,149.8l.6-.1-.3-.3c0,.8-.3-.6-.3.4Z"/>
                <path class="cls-11" d="m63.82,150.6l.1.8c.4.2.8-1.5,1.2-.3-.2-.5.3-.9-.2-1.1-.2.7-.8.8-1.1.6Z"/>
                <path class="cls-11" d="m65.42,151.7c-.1.2.1.4.1.6.2.1.3-.3.2-.6,0,1.1-.2-.6-.3,0Z"/>
                <path class="cls-11" d="m67.32,151.6c-.1,0-.3.1-.1.3.4-.1.2-.9.3-1.3-.3-.5-.4.6-.2,1Z"/>
                <path class="cls-11" d="m70.62,156.1c-.1-.5-.4-.4-.4-.2.1-.1.3.1.4.2Z"/>
                <polygon class="cls-11" points="70.32 151.7 70.12 151.6 70.12 152.4 70.32 151.7"/>
                <polygon class="cls-11" points="72.42 151.3 72.62 150.9 72.22 150.9 72.42 151.3"/>
                <path class="cls-11" d="m72.82,151.4h.4l-.1-.2c-.2-.1-.1.2-.3.2Z"/>
                <path class="cls-11" d="m73.92,151.4s-.1,0-.1-.1l-.3.2.4-.1Z"/>
                <path class="cls-11" d="m79.92,151.8c-.1.1.2-.1.3-.2,0,0-.2.1-.3.2Z"/>
              </g>
            </g>
          </g>
        </g>
      </g>
    </g>
  </g>
</svg>