<svg xmlns="http://www.w3.org/2000/svg" xmlns:xlink="http://www.w3.org/1999/xlink" viewBox="0 0 64 64"><defs><style>.cls-1{fill:url(#linear-gradient);}.cls-2{fill:url(#linear-gradient-2);}</style><linearGradient id="linear-gradient" x1="15.12" y1="39.8" x2="45.14" y2="39.8" gradientUnits="userSpaceOnUse"><stop offset="0" stop-color="#141c2c"/><stop offset="0.84" stop-color="#090d14"/><stop offset="1" stop-color="#070a0f"/></linearGradient><linearGradient id="linear-gradient-2" x1="3.09" y1="31.99" x2="60.93" y2="31.99" gradientUnits="userSpaceOnUse"><stop offset="0" stop-color="#54595d"/><stop offset="0.39" stop-color="#646664"/><stop offset="1" stop-color="#79766d"/></linearGradient></defs><g id="Layer_36" data-name="Layer 36"><path class="cls-1" d="M19.16,54.88h-.09L16,54.6a1,1,0,0,1,.18-2l1.86.17c0-.83-.44-2.22.11-2.66S20,50,20.82,50c0-.82-.43-2.21.11-2.66s1.87-.13,2.67-.13l-.18-1.86a1,1,0,0,1,1.09-1.09l1.86.16c0-.82-.44-2.21.11-2.66s1.85-.13,2.67-.13c0-.82-.44-2.21.11-2.66s1.87-.13,2.66-.13c0-.82-.43-2.21.12-2.66S33.9,36,34.7,36c0-.82-.44-2.22.11-2.66s1.87-.13,2.66-.13c0-.82-.43-2.22.12-2.66s1.87-.14,2.66-.13c0-.83-.43-2.22.12-2.67s1.83-.13,2.67-.13l-.18-1.87a1,1,0,0,1,2-.18l.28,3.06a1,1,0,0,1-.29.8c-.44.55-1.86.13-2.67.13,0,.82.44,2.22-.11,2.66s-1.85.14-2.67.13c0,.83.44,2.22-.11,2.67s-1.83.13-2.66.13c0,.82.43,2.21-.11,2.66s-1.84.13-2.67.12c0,.83.44,2.22-.11,2.67s-1.83.13-2.66.13c0,.82.43,2.21-.12,2.66s-1.85.13-2.66.13c0,.82.44,2.21-.11,2.66s-1.85.13-2.67.13c0,.82.44,2.21-.11,2.66s-1.85.13-2.66.13c0,.82.44,2.21-.11,2.66s-1.84.13-2.66.12l.17,1.87A1,1,0,0,1,19.16,54.88Z"/><path class="cls-2" d="M60.05,18.28,49.12,7.35a7.29,7.29,0,0,0-10.3,0L4.66,41.51a5.41,5.41,0,0,0,0,7.63l8.72,8.71a3,3,0,1,0,4.26-4.12L9.82,45.9a.82.82,0,0,1,0-1.15l25.41-25.4a.63.63,0,0,1,.88,0L44,27.24a3,3,0,0,0,3.89.39,3,3,0,0,0,.38-4.51l-8-8a.63.63,0,0,1,0-.88L43,11.55a1.37,1.37,0,0,1,1.9,0L55.78,22.4A3,3,0,1,0,60.05,18.28Z"/></g></svg>